<svg width="299" height="225" viewBox="0 0 299 225" fill="none" xmlns="http://www.w3.org/2000/svg">
<path d="M7.35 145.5V124.8L54.75 57H83.4V123.3H95.7V145.5H83.4V165H57.75V145.5H7.35ZM59.55 85.2L34.35 123.3H59.55V85.2ZM204.225 145.5V124.8L251.625 57H280.275V123.3H292.575V145.5H280.275V165H254.625V145.5H204.225ZM256.425 85.2L231.225 123.3H256.425V85.2Z" fill="#FF7F00"/>
<path d="M159.545 67.7594C156.886 58.7469 144.114 58.7469 141.455 67.7594L140.812 69.9481C140.414 71.2974 139.72 72.5406 138.78 73.5867C137.84 74.6327 136.677 75.4551 135.378 75.9933C134.078 76.5316 132.675 76.7723 131.27 76.6976C129.866 76.6229 128.496 76.2347 127.261 75.5616L125.265 74.4673C117.006 69.9739 107.974 79.0057 112.474 87.2586L113.562 89.2606C116.433 94.5394 113.71 101.112 107.948 102.812L105.759 103.455C96.7469 106.114 96.7469 118.886 105.759 121.545L107.948 122.188C109.297 122.586 110.541 123.28 111.587 124.22C112.633 125.16 113.455 126.323 113.993 127.622C114.532 128.922 114.772 130.325 114.698 131.73C114.623 133.134 114.235 134.504 113.562 135.739L112.467 137.735C107.974 145.994 117.006 155.026 125.259 150.526L127.261 149.438C128.496 148.765 129.866 148.377 131.27 148.302C132.675 148.228 134.078 148.468 135.378 149.007C136.677 149.545 137.84 150.367 138.78 151.413C139.72 152.459 140.414 153.703 140.812 155.052L141.455 157.241C144.114 166.253 156.886 166.253 159.545 157.241L160.188 155.052C160.586 153.703 161.28 152.459 162.22 151.413C163.16 150.367 164.323 149.545 165.622 149.007C166.922 148.468 168.325 148.228 169.73 148.302C171.134 148.377 172.504 148.765 173.739 149.438L175.735 150.533C183.994 155.026 193.026 145.994 188.526 137.741L187.438 135.739C186.765 134.504 186.377 133.134 186.302 131.73C186.228 130.325 186.468 128.922 187.007 127.622C187.545 126.323 188.367 125.16 189.413 124.22C190.459 123.28 191.703 122.586 193.052 122.188L195.241 121.545C204.253 118.886 204.253 106.114 195.241 103.455L193.052 102.812C191.703 102.414 190.459 101.72 189.413 100.78C188.367 99.8396 187.545 98.6771 187.007 97.3776C186.468 96.0782 186.228 94.6747 186.302 93.2702C186.377 91.8657 186.765 90.4956 187.438 89.2606L188.533 87.265C193.026 79.0057 183.994 69.9739 175.741 74.4737L173.739 75.5616C172.504 76.2347 171.134 76.6229 169.73 76.6976C168.325 76.7723 166.922 76.5316 165.622 75.9933C164.323 75.4551 163.16 74.6327 162.22 73.5867C161.28 72.5406 160.586 71.2974 160.188 69.9481L159.545 67.7594V67.7594ZM150.5 131.362C145.498 131.362 140.7 129.375 137.163 125.837C133.625 122.3 131.638 117.502 131.638 112.5C131.638 107.498 133.625 102.7 137.163 99.1626C140.7 95.6254 145.498 93.6381 150.5 93.6381C155.501 93.6381 160.297 95.6247 163.833 99.1608C167.369 102.697 169.355 107.493 169.355 112.494C169.355 117.494 167.369 122.29 163.833 125.826C160.297 129.362 155.501 131.349 150.5 131.349V131.362Z" fill="#FF7F00"/>
</svg>
