<svg width="34" height="34" viewBox="0 0 34 34" fill="none" xmlns="http://www.w3.org/2000/svg">
<g clip-path="url(#clip0_474_12)">
<path fill-rule="evenodd" clip-rule="evenodd" d="M29.2235 16.3562C29.3631 16.4958 29.4405 16.6862 29.4387 16.8854C29.4368 17.0847 29.3559 17.2765 29.2137 17.4187L22.78 23.8525C22.6378 23.9947 22.4459 24.0756 22.2467 24.0774C22.0474 24.0793 21.857 24.0019 21.7175 23.8623C21.5779 23.7227 21.5005 23.5323 21.5023 23.3331C21.5041 23.1338 21.5851 22.942 21.7272 22.7998L26.8668 17.6603L5.30544 17.8601C5.20665 17.861 5.10901 17.8425 5.0181 17.8055C4.92718 17.7685 4.84476 17.7139 4.77555 17.6447C4.70634 17.5755 4.6517 17.4931 4.61473 17.4021C4.57777 17.3112 4.55922 17.2136 4.56013 17.1148C4.56104 17.016 4.5814 16.918 4.62004 16.8264C4.65869 16.7348 4.71486 16.6513 4.78536 16.5809C4.85586 16.5104 4.9393 16.4542 5.03091 16.4155C5.12253 16.3769 5.22053 16.3565 5.31931 16.3556L26.8806 16.1579L21.835 11.1123C21.6954 10.9727 21.618 10.7823 21.6199 10.5831C21.6217 10.3838 21.7026 10.192 21.8448 10.0498C21.987 9.90758 22.1788 9.82667 22.3781 9.82483C22.5773 9.82299 22.7677 9.90038 22.9073 10.04L29.2235 16.3562Z" fill="black"/>
</g>
<defs>
<clipPath id="clip0_474_12">
<rect width="24.2633" height="23.82" fill="white" transform="translate(0 17.1567) rotate(-45)"/>
</clipPath>
</defs>
</svg>
