<svg width="186" height="186" viewBox="0 0 186 186" fill="none" xmlns="http://www.w3.org/2000/svg">
<g clip-path="url(#clip0_610_3)">
<path d="M-7.12847e-06 93C-4.97218e-06 68.3349 9.79818 44.6799 27.2391 27.2391C44.68 9.79818 68.3349 4.97218e-06 93 7.12847e-06C117.665 9.28476e-06 141.32 9.79819 158.761 27.2391C176.202 44.68 186 68.3349 186 93C186 117.665 176.202 141.32 158.761 158.761C141.32 176.202 117.665 186 93 186C68.3349 186 44.6799 176.202 27.2391 158.761C9.79817 141.32 -9.28477e-06 117.665 -7.12847e-06 93V93ZM87.1875 133.687C87.1875 135.229 87.7999 136.707 88.8899 137.798C89.98 138.888 91.4584 139.5 93 139.5C94.5416 139.5 96.02 138.888 97.1101 137.798C98.2001 136.707 98.8125 135.229 98.8125 133.687L98.8125 66.3439L123.76 91.3028C124.851 92.3942 126.331 93.0073 127.875 93.0073C129.419 93.0073 130.899 92.3942 131.99 91.3028C133.082 90.2113 133.695 88.731 133.695 87.1875C133.695 85.644 133.082 84.1637 131.99 83.0723L97.1153 48.1973C96.5753 47.656 95.9339 47.2265 95.2277 46.9335C94.5216 46.6404 93.7645 46.4896 93 46.4896C92.2355 46.4896 91.4784 46.6404 90.7723 46.9335C90.0661 47.2265 89.4247 47.656 88.8848 48.1973L54.0097 83.0722C52.9183 84.1637 52.3052 85.644 52.3052 87.1875C52.3052 88.731 52.9183 90.2113 54.0097 91.3027C55.1012 92.3942 56.5815 93.0073 58.125 93.0073C59.6685 93.0073 61.1488 92.3942 62.2402 91.3027L87.1875 66.3439L87.1875 133.687Z" fill="#FF7F00"/>
</g>
<defs>
<clipPath id="clip0_610_3">
<rect width="186" height="186" fill="white" transform="translate(186 186) rotate(-180)"/>
</clipPath>
</defs>
</svg>
