<svg width="256" height="256" viewBox="0 0 256 256" fill="none" xmlns="http://www.w3.org/2000/svg">
<path d="M218.509 37.4907C168.522 -12.4969 87.4818 -12.4969 37.4907 37.4907C-12.4969 87.4784 -12.4969 168.518 37.4907 218.509C87.4784 268.497 168.518 268.497 218.509 218.509C268.497 168.522 268.497 87.4816 218.509 37.4907V37.4907ZM183.632 49.7446L49.7478 183.625C23.0263 146.135 26.4851 93.7534 60.1209 60.1175C93.7568 26.4817 146.141 23.0229 183.629 49.7444H183.632V49.7446ZM206.259 72.3682C232.978 109.859 229.519 162.243 195.879 195.876C162.247 229.515 109.862 232.977 72.3716 206.252L206.256 72.3682H206.259Z" fill="#FF7F00"/>
</svg>
