<svg width="148" height="189" viewBox="0 0 148 189" fill="none" xmlns="http://www.w3.org/2000/svg">
<path d="M140.952 149.482H135.667V76.4591C135.667 46.1547 112.696 21.0907 82.8095 16.9241V8.59091C82.8095 3.84443 78.8673 0 74 0C69.1327 0 65.1905 3.84443 65.1905 8.59091V16.9241C35.3042 21.0907 12.3333 46.1547 12.3333 76.4591V149.482H7.04762C3.1494 149.482 0 152.553 0 156.355V163.227C0 164.172 0.792857 164.945 1.7619 164.945H49.3333C49.3333 178.218 60.3893 189 74 189C87.6107 189 98.6667 178.218 98.6667 164.945H146.238C147.207 164.945 148 164.172 148 163.227V156.355C148 152.553 144.851 149.482 140.952 149.482ZM74 175.255C68.1637 175.255 63.4286 170.637 63.4286 164.945H84.5714C84.5714 170.637 79.8363 175.255 74 175.255Z" fill="#FF7F00"/>
</svg>
