<svg width="221" height="251" viewBox="0 0 221 251" fill="none" xmlns="http://www.w3.org/2000/svg">
<path d="M86.9688 0C80.7279 0 74.7426 2.47918 70.3296 6.89214C65.9167 11.3051 63.4375 17.2904 63.4375 23.5312V39.2188C63.4375 45.4596 65.9167 51.4449 70.3296 55.8579C74.7426 60.2708 80.7279 62.75 86.9688 62.75H134.031C140.272 62.75 146.257 60.2708 150.67 55.8579C155.083 51.4449 157.562 45.4596 157.562 39.2188V23.5312C157.562 17.2904 155.083 11.3051 150.67 6.89214C146.257 2.47918 140.272 0 134.031 0L86.9688 0ZM134.031 15.6875C136.112 15.6875 138.107 16.5139 139.578 17.9849C141.049 19.4559 141.875 21.451 141.875 23.5312V39.2188C141.875 41.299 141.049 43.2941 139.578 44.7651C138.107 46.2361 136.112 47.0625 134.031 47.0625H86.9688C84.8885 47.0625 82.8934 46.2361 81.4224 44.7651C79.9514 43.2941 79.125 41.299 79.125 39.2188V23.5312C79.125 21.451 79.9514 19.4559 81.4224 17.9849C82.8934 16.5139 84.8885 15.6875 86.9688 15.6875H134.031Z" fill="#FF7F00"/>
<path d="M47.75 23.5312H32.0625C23.7413 23.5313 15.761 26.8368 9.87703 32.7208C3.99307 38.6047 0.6875 46.5851 0.6875 54.9062V219.625C0.6875 227.946 3.99307 235.927 9.87703 241.81C15.761 247.694 23.7413 251 32.0625 251H188.938C197.259 251 205.239 247.694 211.123 241.81C217.007 235.927 220.312 227.946 220.312 219.625V54.9062C220.312 46.5851 217.007 38.6047 211.123 32.7208C205.239 26.8368 197.259 23.5313 188.938 23.5312H173.25V39.2188C173.25 44.369 172.236 49.4689 170.265 54.2271C168.294 58.9854 165.405 63.3088 161.763 66.9506C158.121 70.5924 153.798 73.4812 149.04 75.4522C144.281 77.4231 139.182 78.4375 134.031 78.4375H86.9688C76.5673 78.4375 66.5918 74.3055 59.2369 66.9506C51.882 59.5957 47.75 49.6202 47.75 39.2188V23.5312ZM155.272 138.897L108.21 185.96C107.481 186.69 106.615 187.27 105.663 187.665C104.71 188.06 103.688 188.264 102.656 188.264C101.625 188.264 100.603 188.06 99.65 187.665C98.6971 187.27 97.8315 186.69 97.1029 185.96L73.5716 162.428C72.0988 160.956 71.2713 158.958 71.2713 156.875C71.2713 154.792 72.0988 152.794 73.5716 151.322C75.0445 149.849 77.0421 149.021 79.125 149.021C81.2079 149.021 83.2055 149.849 84.6784 151.322L102.656 169.315L144.165 127.79C145.638 126.318 147.636 125.49 149.719 125.49C151.802 125.49 153.799 126.318 155.272 127.79C156.745 129.263 157.572 131.261 157.572 133.344C157.572 135.427 156.745 137.424 155.272 138.897V138.897Z" fill="#FF7F00"/>
</svg>
