<svg width="411" height="310" viewBox="0 0 411 310" fill="none" xmlns="http://www.w3.org/2000/svg">
<path d="M181.627 64.6634L5.57456 167.139C3.86482 168.134 2.44875 169.564 1.4697 171.284C0.490586 173.004 -0.0162402 174.952 0.000396777 176.932C0.0170337 178.911 0.556604 180.85 1.56454 182.554C2.57214 184.257 4.01209 185.663 5.73847 186.629L221.248 307.306C223.854 308.765 226.782 309.541 229.769 309.566C232.752 309.591 235.697 308.862 238.326 307.447L403.896 218.343C406.007 217.209 407.778 215.528 409.026 213.479C410.277 211.433 410.956 209.087 410.998 206.688C411.042 204.29 410.443 201.922 409.267 199.831C408.092 197.74 406.381 196 404.31 194.79L181.627 64.6631L181.627 64.6634Z" fill="#EAECF0"/>
<path d="M59.4523 135.825L37.6926 148.476C37.6926 148.476 38.9046 166.95 61.1773 164.087L101.323 142.085" fill="#A2A9B1"/>
<path d="M83.9939 146.125C97.3622 146.125 108.199 140.764 108.199 134.151C108.199 127.538 97.3622 122.178 83.9939 122.178C70.6259 122.178 59.7888 127.538 59.7888 134.151C59.7888 140.764 70.6259 146.125 83.9939 146.125Z" fill="#FF7F00"/>
<path d="M108.188 102.031V134.587C108.188 134.587 90.1737 151.27 59.7888 134.861V102.086" fill="#FF7F00"/>
<path d="M63.9304 113.809C63.9304 113.809 59.9236 107.669 56.146 111.209C52.3682 114.749 55.6765 127.028 66.7583 128.208L66.7584 133.168C66.7583 133.168 52.8377 131.278 50.9491 118.769C49.0603 106.26 58.0348 104.326 62.5113 107.768" fill="#FF7F00"/>
<path d="M200.385 145.574L179.497 155.635C178.71 156.013 178.042 156.599 177.562 157.329C177.082 158.058 176.811 158.905 176.775 159.778C176.741 160.651 176.944 161.517 177.365 162.282C177.784 163.048 178.405 163.685 179.159 164.124L228.673 193.021C229.741 193.646 231.011 193.833 232.214 193.544C233.42 193.255 234.466 192.512 235.137 191.469L247.146 172.744" fill="#54595D"/>
<path d="M153.234 208.376L71.0439 165.069L58.488 173.263L192.517 246.678L210.97 234.606" fill="#A2A9B1"/>
<path d="M224.409 249.554L171.57 280.565C171.57 280.565 184.397 292.868 199.334 299.137L250.765 267.863" fill="#C8CCD1"/>
<path d="M222.256 241.36V250.513L250.492 267.993L284.37 247.28V239.48" fill="#00A7E2"/>
<path d="M222.256 241.36V250.513L250.492 267.993L284.37 247.28V239.48" fill="#54595D"/>
<path d="M284.37 239.475L255.602 222.258L222.256 241.355L251.027 258.846L284.37 239.475Z" fill="#A2A9B1"/>
<path d="M256.65 245.705C255.904 244.804 255.272 243.819 254.762 242.766C254.642 242.067 256.345 238.734 256.661 238.834C257.803 239.408 258.874 240.115 259.85 240.941" fill="#72777D"/>
<path d="M256.567 240.13C256.634 240.394 255.63 245.407 256.262 245.593C257.602 245.718 258.952 245.718 260.291 245.593C260.544 243.782 260.699 241.958 260.749 240.13" fill="#202122"/>
<path d="M261.531 233.631L256.487 235.04C256.487 235.162 255.658 239.707 256.29 240.383C257.097 240.957 257.934 241.481 258.802 241.955C258.797 243.544 258.888 245.133 259.074 246.708C259.374 246.766 259.681 246.766 259.981 246.708C260.189 245.058 260.472 241.706 260.472 241.706C260.472 241.706 261.947 241.193 262.033 240.733C262.121 240.275 261.531 233.631 261.531 233.631V233.631Z" fill="#72777D"/>
<path d="M272.717 269.192C272.717 269.192 270.535 266.406 270.36 265.521C270.186 264.637 272.337 260.486 272.739 260.605C274.165 261.323 275.498 262.205 276.716 263.239" fill="#72777D"/>
<path d="M272.299 262.227C272.377 262.554 271.121 268.782 271.916 269.064C273.591 269.22 275.277 269.22 276.952 269.064C277.212 269.064 277.517 262.227 277.517 262.227" fill="#202122"/>
<path d="M278.496 254.428L272.196 256.186C272.196 256.341 271.159 262.009 271.946 262.852C272.731 263.692 275.132 264.665 275.08 264.818C275.071 266.798 275.185 268.775 275.418 270.738C275.778 270.804 276.147 270.804 276.51 270.738C276.76 268.675 277.12 264.491 277.12 264.491C277.12 264.491 278.967 263.845 279.064 263.276C279.161 262.711 278.496 254.428 278.496 254.428V254.428Z" fill="#72777D"/>
<path d="M314.348 97.0481L147.741 1.00707C146.595 0.345457 145.295 -0.00192189 143.973 7.9975e-06C142.65 0.00220407 141.352 0.353511 140.209 1.01846C139.066 1.68367 138.118 2.63889 137.462 3.78797C136.806 4.93698 136.465 6.23886 136.473 7.56203V107.47C136.464 108.576 136.748 109.664 137.297 110.623C137.845 111.583 138.638 112.38 139.595 112.933L317.188 215.507C317.801 215.862 318.497 216.05 319.204 216.05C319.914 216.05 320.61 215.864 321.222 215.509C321.835 215.154 322.345 214.644 322.698 214.031C323.052 213.416 323.238 212.72 323.235 212.01V112.43C323.235 109.311 322.415 106.247 320.854 103.546C319.293 100.846 317.049 98.6045 314.349 97.0479L314.348 97.0481Z" fill="#72777D"/>
<path d="M147.309 8.59599L308.895 101.6C310.622 102.594 312.056 104.026 313.051 105.753C314.049 107.479 314.573 109.438 314.571 111.432V186.334C314.571 187.051 314.382 187.755 314.021 188.376C313.664 188.997 313.148 189.512 312.53 189.872C311.909 190.231 311.207 190.422 310.489 190.424C309.774 190.426 309.069 190.24 308.445 189.884L143.704 95.2747C143.088 94.9225 142.576 94.4139 142.219 93.8C141.863 93.1861 141.674 92.4888 141.674 91.7786V11.8848C141.681 11.2274 141.858 10.583 142.188 10.0145C142.519 9.44607 142.991 8.97305 143.559 8.64198C144.126 8.31064 144.77 8.13209 145.427 8.12431C146.084 8.11626 146.732 8.27903 147.308 8.59653L147.309 8.59599Z" fill="white"/>
<path d="M137.268 119.261C140.237 118.77 174.64 140.314 174.64 140.314V148.737L160.535 156.657L122.179 135.605V125.707L137.268 119.261V119.261Z" fill="#00A7E2"/>
<path d="M137.268 119.261C140.237 118.77 174.64 140.314 174.64 140.314V148.737L160.535 156.657L122.179 135.605V125.707L137.268 119.261V119.261Z" fill="#A2A9B1"/>
<path d="M120.878 124.452L159.143 145.109L173.146 138.87V147.189L159.282 155.091L120.878 134.434V124.452V124.452Z" fill="#72777D"/>
<path d="M114.06 140.44L70.3878 165.37C69.9319 165.633 69.5532 166.011 69.29 166.466C69.0266 166.922 68.8879 167.439 68.8879 167.965C68.8879 168.491 69.0266 169.008 69.29 169.464C69.5532 169.919 69.9319 170.297 70.3878 170.56L191.479 240.25C192.949 241.098 194.615 241.545 196.31 241.545C198.007 241.545 199.673 241.098 201.14 240.25L241.92 216.684C242.408 216.415 242.813 216.018 243.095 215.538C243.378 215.059 243.525 214.51 243.525 213.952C243.525 213.395 243.378 212.849 243.095 212.369C242.813 211.889 242.408 211.493 241.92 211.221L119.42 140.418C118.6 139.96 117.676 139.721 116.737 139.725C115.798 139.729 114.876 139.974 114.059 140.439L114.06 140.44Z" fill="#54595D"/>
<path d="M143.132 221.921C143.038 221.347 142.804 220.803 142.452 220.338C142.1 219.875 141.64 219.503 141.112 219.256L134.649 215.518L124.659 209.729L112.725 202.814L100.028 195.45L87.745 188.338L77.0674 182.155L69.1734 177.577L65.0248 175.174C65.0248 175.261 64.8828 175.261 64.7955 175.239C64.2966 175.108 63.7723 175.11 63.2742 175.245C62.7765 175.38 62.3223 175.642 61.9572 176.007C61.592 176.371 61.3283 176.824 61.1922 177.322C61.0563 177.82 61.0524 178.345 61.1816 178.844C61.8441 180.74 63.0949 182.375 64.7519 183.509C69.5836 186.98 74.6265 190.147 79.8513 192.992V191.124C76.3356 189.201 68.7586 184.853 65.5707 181.576L67.0883 182.46L71.2697 184.908L77.5584 188.589L85.4086 193.178L94.2742 198.356L103.598 203.819L112.835 209.226L121.438 214.251L128.851 218.621L134.529 221.899C136.265 222.916 138.142 224.292 140.162 224.685C140.542 224.713 140.923 224.66 141.281 224.533C141.64 224.408 141.969 224.208 142.248 223.948C142.526 223.69 142.748 223.377 142.901 223.027C143.053 222.678 143.132 222.301 143.132 221.921V221.921Z" fill="#00A7E2"/>
<path d="M143.132 221.921C143.038 221.347 142.804 220.803 142.452 220.338C142.1 219.875 141.64 219.503 141.112 219.256L134.649 215.518L124.659 209.729L112.725 202.814L100.028 195.45L87.745 188.338L77.0674 182.155L69.1734 177.577L65.0248 175.174C65.0248 175.261 64.8828 175.261 64.7955 175.239C64.2966 175.108 63.7723 175.11 63.2742 175.245C62.7765 175.38 62.3223 175.642 61.9572 176.007C61.592 176.371 61.3283 176.824 61.1922 177.322C61.0563 177.82 61.0524 178.345 61.1816 178.844C61.8441 180.74 63.0949 182.375 64.7519 183.509C69.5836 186.98 74.6265 190.147 79.8513 192.992V191.124C76.3356 189.201 68.7586 184.853 65.5707 181.576L67.0883 182.46L71.2697 184.908L77.5584 188.589L85.4086 193.178L94.2742 198.356L103.598 203.819L112.835 209.226L121.438 214.251L128.851 218.621L134.529 221.899C136.265 222.916 138.142 224.292 140.162 224.685C140.542 224.713 140.923 224.66 141.281 224.533C141.64 224.408 141.969 224.208 142.248 223.948C142.526 223.69 142.748 223.377 142.901 223.027C143.053 222.678 143.132 222.301 143.132 221.921V221.921Z" fill="#202122"/>
<path d="M216.157 149.95C218.065 149.583 219.268 147.518 218.849 145.337C218.431 143.157 216.545 141.687 214.637 142.055C212.733 142.422 211.526 144.487 211.945 146.668C212.364 148.848 214.252 150.318 216.157 149.95Z" fill="white"/>
<path d="M215.167 61.1784L262.258 88.4907C262.74 88.7705 263.137 89.1767 263.406 89.6656C263.675 90.1547 263.808 90.7078 263.786 91.2658L262.158 133.556C262.139 134.085 261.983 134.599 261.706 135.049C261.429 135.5 261.041 135.871 260.578 136.127C260.117 136.383 259.596 136.515 259.067 136.511C258.54 136.506 258.021 136.365 257.564 136.101L212.1 109.958C211.632 109.689 211.244 109.3 210.972 108.832C210.703 108.364 210.559 107.833 210.562 107.293V63.8443C210.559 63.3038 210.7 62.7728 210.969 62.3042C211.238 61.8358 211.626 61.4469 212.092 61.1762C212.561 60.9058 213.09 60.7636 213.631 60.7642C214.172 60.7644 214.701 60.9075 215.167 61.1784V61.1784Z" fill="#F4AC45"/>
<path d="M232.732 68.8475C232.735 68.8148 232.735 68.7819 232.732 68.7491L232.558 67.2742C230.733 67.1869 229.696 67.6239 227.874 67.635C226.97 68.5595 226.374 69.7371 226.158 71.0106C226.158 71.9173 226.269 73.1956 227.381 73.0645C227.555 73.9057 228.049 75.0093 229.042 74.7797L229.172 74.7251C229.239 75.2824 229.413 75.8176 229.948 75.9815C230.484 76.1453 230.822 75.8503 231.038 75.3587C231.235 76.1018 231.584 77.2378 232.339 77.227C233.364 77.227 233.431 75.7083 233.168 74.2008C233.145 72.4084 232.998 70.6199 232.732 68.8475V68.8475Z" fill="#EDB98A"/>
<path d="M227.837 70.3299C227.548 71.146 227.421 72.0108 227.465 72.8754C227.465 73.1485 227.892 73.1485 227.881 72.8754C227.839 72.0477 227.961 71.2197 228.242 70.4392C228.327 70.1879 227.923 70.0787 227.837 70.3299V70.3299Z" fill="black"/>
<path d="M228.934 71.3582L228.759 74.8652C228.759 75.1383 229.164 75.1383 229.175 74.8652L229.35 71.3582C229.35 71.0961 228.956 71.0961 228.934 71.3582Z" fill="black"/>
<path d="M230.058 70.7196V75.3627C230.058 75.4179 230.077 75.4706 230.116 75.5097C230.155 75.5485 230.21 75.5704 230.263 75.5704C230.319 75.5704 230.371 75.5485 230.41 75.5097C230.449 75.4706 230.471 75.4179 230.471 75.3627V70.7196C230.471 70.6647 230.449 70.6118 230.41 70.5729C230.371 70.5338 230.319 70.5122 230.263 70.5122C230.21 70.5122 230.155 70.5338 230.116 70.5729C230.077 70.6118 230.058 70.6647 230.058 70.7196V70.7196Z" fill="black"/>
<path d="M232.657 67.2627C234.013 68.6882 234.829 70.5432 234.962 72.5067L232.985 71.2614L232.657 67.2627V67.2627Z" fill="#EDB98A"/>
<path d="M250.182 77.0107C250.182 77.0107 248.718 77.2727 248.685 77.2508C247.417 78.0486 244.198 79.6981 242.856 80.3429C242.058 80.7252 240.081 81.5554 240.519 82.7571C240.749 83.4018 241.392 83.511 242.221 83.3252C242.163 83.4963 242.166 83.6829 242.229 83.8526C242.293 84.0223 242.412 84.1644 242.571 84.2539C242.828 84.3736 243.114 84.4208 243.397 84.39C243.68 84.3593 243.949 84.2517 244.176 84.0789C244.218 84.2819 244.331 84.4638 244.492 84.5924C245.18 85.1825 246.491 84.527 247.243 84.1774C247.232 84.3155 247.232 84.4544 247.243 84.5924C247.243 85.0295 247.681 85.4556 248.086 85.2372C250.018 84.2101 253.052 80.4629 253.936 78.6822C252.103 77.9829 251.982 77.7755 250.182 77.0107Z" fill="#EDB98A"/>
<path d="M248.811 82.291C248.307 82.9984 247.702 83.6308 247.02 84.1699C246.826 84.3229 247.098 84.5853 247.295 84.443C248.002 83.8818 248.626 83.2235 249.15 82.4876C249.283 82.2911 248.953 82.0941 248.811 82.291Z" fill="black"/>
<path d="M247.845 81.2792C246.731 82.1678 245.597 83.0272 244.437 83.8576C244.241 83.9996 244.437 84.3273 244.634 84.1854C245.849 83.333 247.011 82.4626 248.117 81.5742C248.303 81.3995 248.031 81.1264 247.845 81.2792V81.2792Z" fill="black"/>
<path d="M245.623 80.9452C244.433 81.7856 243.169 82.5168 241.846 83.1302C241.627 83.2394 241.846 83.5671 242.043 83.4579C243.365 82.8446 244.627 82.1133 245.819 81.2729C246.038 81.1307 245.819 80.803 245.623 80.9452Z" fill="black"/>
<path d="M249.311 77.445C249.311 77.445 247.467 76.0905 244.356 78.1659L246.965 79.7939" fill="#EDB98A"/>
<path d="M290.068 149.627C290.046 149.55 290.007 149.479 289.954 149.419C289.904 149.358 289.84 149.309 289.768 149.274C289.696 149.239 289.619 149.219 289.538 149.216C289.458 149.213 289.377 149.226 289.305 149.255C289.336 148.892 289.336 148.526 289.305 148.163C289.305 147.649 289.205 146.917 288.648 146.699C288.487 146.639 288.31 146.633 288.146 146.682C287.98 146.732 287.836 146.833 287.733 146.972C287.669 146.637 287.578 146.308 287.459 145.989C287.423 145.87 287.348 145.765 287.248 145.69C287.148 145.616 287.026 145.575 286.901 145.574C286.28 145.574 285.964 146.076 285.812 146.666C285.812 146.612 285.581 146.404 285.526 146.371C285.423 146.297 285.304 146.255 285.177 146.251C284.944 146.237 284.711 146.307 284.522 146.447C284.342 146.625 284.234 146.862 284.217 147.114C284.167 147.531 284.167 147.953 284.217 148.37C284.217 148.884 284.325 149.386 284.359 149.9C284.392 150.413 284.359 150.621 284.359 150.992C283.879 150.064 283.202 148.906 282.415 149.452C281.63 149.998 282.318 150.741 282.534 151.254C282.986 152.273 283.518 153.252 284.128 154.182C284.045 154.641 283.934 155.093 283.79 155.537C285.251 156.134 286.663 156.842 288.016 157.657C288.449 156.206 288.97 154.783 289.577 153.396C290.234 152.254 290.409 150.899 290.068 149.627V149.627Z" fill="#D08B5B"/>
<path d="M284.873 146.646C284.829 148.059 284.754 149.468 284.646 150.874C284.646 150.994 284.829 150.994 284.829 150.874C284.94 149.468 285.015 148.059 285.059 146.646C285.07 146.515 284.873 146.515 284.873 146.646V146.646Z" fill="black"/>
<path d="M287.705 146.971C287.583 148.246 287.43 149.513 287.247 150.773C287.247 150.893 287.411 150.948 287.433 150.773C287.622 149.491 287.78 148.205 287.902 146.916C287.902 146.851 287.716 146.851 287.705 146.971V146.971Z" fill="black"/>
<path d="M288.962 149.245C288.868 150.134 288.729 151.015 288.546 151.889C288.546 152.01 288.709 152.064 288.732 151.889C288.915 151.001 289.053 150.105 289.148 149.202C289.159 149.125 288.973 149.125 288.962 149.245Z" fill="black"/>
<path d="M246.2 149.309C246.069 149.014 245.936 148.719 245.817 148.413C245.748 148.255 245.723 148.082 245.742 147.911C245.836 147.449 245.903 146.982 245.936 146.512C245.909 145.014 245.609 143.533 245.054 142.142C244.985 141.921 244.866 141.718 244.705 141.551C244.544 141.383 244.347 141.255 244.131 141.177C243.912 141.098 243.679 141.072 243.449 141.099C243.219 141.126 242.997 141.206 242.803 141.334L242.401 140.602C241.647 139.269 240.84 136.975 239.123 136.8C238.993 136.798 238.863 136.827 238.744 136.887C238.624 136.946 238.525 137.033 238.447 137.14C238.369 137.248 238.319 137.372 238.3 137.503C238.28 137.634 238.294 137.768 238.339 137.892C238.666 138.755 239.004 139.608 239.354 140.449C239.281 140.37 239.193 140.308 239.093 140.265C238.993 140.222 238.888 140.201 238.78 140.201C238.674 140.201 238.566 140.222 238.469 140.265C238.369 140.308 238.28 140.37 238.208 140.449C238.006 140.654 237.873 140.915 237.823 141.198C237.776 141.481 237.815 141.772 237.934 142.033H237.726C237.543 141.94 237.343 141.887 237.138 141.88C236.974 141.89 236.814 141.935 236.669 142.013C236.523 142.09 236.398 142.197 236.298 142.328C236.184 142.483 236.109 142.663 236.079 142.853C236.048 143.043 236.062 143.238 236.123 143.42H235.979C235.815 143.481 235.668 143.58 235.552 143.709C235.433 143.838 235.35 143.994 235.302 144.163C235.244 144.392 235.244 144.633 235.302 144.862C235.217 145.715 239.67 149.888 239.67 149.888L242.312 152.783L246.746 150.675C246.81 150.521 246.255 149.429 246.2 149.309V149.309Z" fill="#D08B5B"/>
<path d="M275.978 189.654C268.106 176.195 260.692 189.348 260.692 189.348C257.639 193.527 255.263 198.161 253.652 203.081C251.838 209.264 251.849 229.301 252.745 235.265C256.02 236.532 263.345 236.15 266.764 235.179V211.144C266.775 211.075 266.811 211.017 266.864 210.972C266.917 210.928 266.983 210.906 267.053 210.906C267.122 210.906 267.189 210.928 267.241 210.972C267.294 211.017 267.33 211.075 267.341 211.144L267.505 258.876C273.253 259.086 278.987 258.144 284.363 256.1C284.363 256.1 283.379 202.316 275.978 189.654V189.654Z" fill="white"/>
<path d="M245.194 147.848C242.823 148.427 241.207 149.672 239.155 150.983C239.909 153.627 248.164 174.275 258.545 178.645L259.374 163.951C259.374 163.951 254.78 163.514 245.194 147.848V147.848Z" fill="#FF7F00"/>
<path d="M282.293 154.347C281.969 156.903 281.079 159.355 279.687 161.524C278.295 163.692 276.434 165.521 274.246 166.878L275.655 180.37C281.955 176.317 288.593 161.252 289.563 157.318C288.607 156.368 287.473 155.617 286.225 155.107C284.977 154.597 283.641 154.339 282.293 154.347V154.347Z" fill="#FF7F00"/>
<path d="M257.353 179.531L258.739 191.625C258.739 191.625 268.697 195.394 276.067 191.625V179.367" fill="#FF7F00"/>
<path d="M281.483 176.118C281.283 175.436 280.948 174.801 280.501 174.25C279.805 173.44 279.046 172.688 278.23 171.999C278.028 171.84 277.873 171.633 277.77 171.398C277.432 170.371 278.632 168.798 278.469 167.542C278.219 165.685 277.038 165.062 275.882 163.838C275.255 163.211 274.845 162.4 274.714 161.522C274.049 160.185 273.536 158.778 273.187 157.327C272.344 154.957 271.002 152.335 268.459 151.471C267.05 151.021 265.545 150.976 264.114 151.343C262.683 151.71 261.386 152.474 260.368 153.547C258.621 155.546 258.959 158.267 258.762 160.768C258.876 160.995 258.954 161.239 258.993 161.49C259.331 163.915 256.142 164.024 255.848 165.947C255.809 166.312 255.826 166.68 255.901 167.039C256.15 168.418 256.744 169.711 257.628 170.798C259.811 173.747 254.733 175.266 254.756 177.997C254.817 178.981 255.138 179.932 255.685 180.753C256.231 181.574 256.982 182.236 257.867 182.673C262.176 184.814 267.097 185.374 271.778 184.257C275.272 183.459 282.683 180.554 281.483 176.118V176.118ZM262.048 171.617V171.442L262.245 171.442L262.048 171.617Z" fill="black"/>
<path d="M267.124 211.081L256.052 208.611L266.578 216.826L267.124 211.081Z" fill="black"/>
<path d="M240.501 142.932C239.633 141.219 238.904 139.44 238.319 137.612C238.23 137.327 237.773 137.448 237.87 137.732C238.452 139.608 239.181 141.434 240.055 143.194C240.229 143.434 240.634 143.194 240.501 142.932V142.932Z" fill="black"/>
<path d="M238.138 144.071C237.709 143.334 237.32 142.571 236.982 141.788C236.86 141.515 236.458 141.788 236.577 142.028C236.918 142.812 237.304 143.574 237.734 144.311C237.767 144.365 237.82 144.404 237.878 144.419C237.939 144.434 238.003 144.425 238.058 144.393C238.111 144.362 238.149 144.31 238.163 144.249C238.18 144.189 238.172 144.125 238.138 144.071Z" fill="black"/>
<path d="M236.812 145.212C236.329 144.588 235.961 143.886 235.719 143.136C235.633 142.852 235.173 142.973 235.273 143.257C235.509 144.042 235.877 144.781 236.363 145.441C236.604 145.693 236.998 145.453 236.812 145.212Z" fill="black"/>
<path d="M243.466 143.985C243.014 143.068 242.601 142.132 242.222 141.178C242.113 140.905 241.653 141.025 241.775 141.298C242.169 142.289 242.596 143.261 243.062 144.215C243.195 144.499 243.597 144.259 243.466 143.985V143.985Z" fill="black"/>
<path d="M140.62 59.8069C140.688 59.6952 140.722 59.5663 140.719 59.4354C140.724 58.7896 140.596 58.1493 140.342 57.5551C140.088 56.9612 139.715 56.426 139.244 55.9832C139.061 55.8168 138.842 55.6949 138.603 55.6267C138.365 55.5584 138.114 55.5462 137.871 55.5906C137.627 55.635 137.396 55.7348 137.197 55.8823C136.998 56.0301 136.836 56.2214 136.723 56.4421C135.696 58.5506 138.044 60.659 139.921 60.9103C140.445 60.9759 140.653 60.5389 140.566 60.1239C140.607 60.0235 140.626 59.9153 140.62 59.8069V59.8069Z" fill="#CA054D"/>
<path d="M137.655 96.0157L133.877 93.9072L137.022 102.516L137.655 96.0157V96.0157Z" fill="#202122"/>
<path d="M180.115 180.017L167.668 187.391L176.907 192.756C179.516 191.237 186.983 186.823 189.385 185.403L180.115 180.017V180.017Z" fill="white"/>
<path d="M167.12 172.218L154.673 179.593L166.369 186.388C168.409 185.208 175.954 180.751 178.857 179.036L167.12 172.218Z" fill="white"/>
<path d="M116.623 143.298L103.979 150.563L115.225 157.118C117.005 156.091 124.636 151.579 127.715 149.766L116.623 143.298V143.298Z" fill="white"/>
<path d="M143.724 158.895L131.278 166.269L140.515 171.633C142.698 170.366 150.198 165.931 153.004 164.281L143.724 158.895Z" fill="white"/>
<path d="M130.723 150.773L118.277 158.147L129.97 164.943C131.346 164.156 139.174 159.48 142.46 157.59L130.723 150.773V150.773Z" fill="white"/>
<path d="M191.813 186.516L179.366 193.89L188.2 199.025C190.854 197.474 198.332 193.06 200.678 191.673L191.813 186.516Z" fill="white"/>
<path d="M155.42 165.395L142.975 172.769L152.8 178.45C155.104 177.117 162.626 172.693 165.291 171.098L155.42 165.395V165.395Z" fill="white"/>
<path d="M202.2 192.689L189.764 200.075L201.457 206.87C203.903 205.45 211.37 201.036 213.935 199.518L202.2 192.689Z" fill="white"/>
<path d="M216.5 200.813L204.064 208.188L225.049 220.38L237.679 213.115L216.5 200.813V200.813Z" fill="white"/>
<path d="M103.627 152.722L90.9839 159.987L107.361 169.481C109.545 168.236 117.012 163.8 119.851 162.128L103.627 152.722V152.722Z" fill="white"/>
<path d="M134.669 171.243L122.179 178.617L131.416 183.981C133.883 182.539 141.351 178.137 143.895 176.629L134.669 171.243Z" fill="white"/>
<path d="M158.034 184.566L145.575 191.941L157.268 198.736C159.617 197.37 167.095 192.957 169.76 191.383L158.034 184.566Z" fill="white"/>
<path d="M146.324 177.742L133.877 185.116L143.704 190.797C146.269 189.3 153.737 184.886 156.182 183.445L146.324 177.742Z" fill="white"/>
<path d="M171.018 192.364L158.571 199.739L167.852 205.103C170.699 203.431 178.222 198.996 180.329 197.75L171.018 192.364V192.364Z" fill="white"/>
<path d="M182.715 198.863L170.268 206.205L179.099 211.34C182.005 209.646 189.539 205.2 191.579 203.987L182.715 198.863Z" fill="white"/>
<path d="M121.626 163.12L109.18 170.494L120.873 177.29C122.729 176.197 130.328 171.729 133.363 169.937L121.626 163.12Z" fill="white"/>
<path d="M193.114 205.037L180.667 212.412L192.371 219.239C195.08 217.667 202.547 213.241 204.851 211.885L193.114 205.037V205.037Z" fill="white"/>
<path d="M194.963 220.536L210.848 229.767L223.492 222.502L207.399 213.161L194.963 220.536V220.536Z" fill="white"/>
<path d="M184.724 219.334L175.466 224.841L186.199 231.055L195.599 225.659L184.724 219.334Z" fill="white"/>
<path d="M188.465 232.301L197.593 237.589L207.004 232.215L197.713 226.808L188.465 232.301V232.301Z" fill="white"/>
<path d="M87.669 162.47L77.9846 167.856L88.9792 174.225L98.4888 168.762L87.669 162.47Z" fill="white"/>
<path d="M100.33 169.944L90.9839 175.494L102.721 182.3L112.22 176.849L100.33 169.944V169.944Z" fill="white"/>
<path d="M114.615 178.067L105.28 183.606L173.986 223.45L183.408 218.04L114.614 178.067H114.615Z" fill="white"/>
<path d="M160.381 62.9194C166.819 62.7373 171.793 54.0334 171.497 43.4786C171.197 32.9242 165.738 24.5155 159.299 24.6977C152.863 24.8799 147.886 33.5838 148.186 44.1385C148.482 54.693 153.942 63.1016 160.381 62.9194Z" fill="#EAECF0"/>
<path d="M169.004 41.3518C169.875 31.6738 165.36 23.3581 158.919 22.7781C152.481 22.1982 146.552 29.5737 145.683 39.2516C144.812 48.9297 149.328 57.2453 155.766 57.8254C162.208 58.4052 168.133 51.0298 169.004 41.3518Z" fill="#92BFB1"/>
<path d="M162.572 38.9958C162.835 36.1902 160.991 33.7241 158.46 33.4875C155.925 33.251 153.66 35.3337 153.397 38.1392C153.136 40.9448 154.977 43.4109 157.512 43.6475C160.046 43.884 162.311 41.8013 162.572 38.9958Z" fill="white"/>
<path d="M146.873 49.8607C146.873 49.8607 149.601 43.8193 154.448 44.584C159.298 45.3488 162.375 47.8615 164.375 54.6896C163.207 56.3965 161.521 57.6817 159.567 58.3549C157.612 59.0279 155.49 59.0529 153.522 58.4259C151.797 57.6498 150.291 56.4633 149.132 54.9705C147.973 53.4773 147.197 51.7232 146.873 49.8607V49.8607Z" fill="white"/>
<path d="M172.83 45.7625C172.805 45.6935 172.772 45.6275 172.733 45.5657C172.88 45.4259 172.996 45.2559 173.071 45.0674C173.146 44.8788 173.179 44.6761 173.171 44.4731C173.154 44.3379 173.113 44.2067 173.043 44.0883C172.977 43.9699 172.885 43.8668 172.777 43.785C172.88 43.6699 172.941 43.5252 172.957 43.3718C172.971 43.2187 172.938 43.0646 172.86 42.9312C172.783 42.7981 172.666 42.6927 172.525 42.6304C172.386 42.5679 172.228 42.5513 172.078 42.5832C170.986 42.7909 170.309 44.1893 169.741 45.0194C169.317 45.6314 168.923 46.2649 168.551 46.8985C168.485 45.981 168.355 45.0524 168.288 44.1893C168.224 43.3263 166.882 43.2717 166.882 44.1893C166.957 45.5723 166.813 46.959 166.455 48.2969C166.317 48.3657 166.192 48.458 166.084 48.57C162.121 52.7276 157.161 55.7974 151.673 57.4849C151.399 57.577 151.16 57.7567 150.999 57.9965C150.836 58.2361 150.758 58.5225 150.772 58.8117C150.789 59.1009 150.9 59.3768 151.088 59.597C151.277 59.8171 151.532 59.9694 151.815 60.0303C151.834 60.2965 151.934 60.5503 152.1 60.7574C152.269 60.9648 152.497 61.1151 152.752 61.1883C152.793 61.3924 152.877 61.5854 152.999 61.7548C153.118 61.9242 153.273 62.0664 153.451 62.1715L152.524 62.5758C151.016 63.2094 151.684 65.7005 153.212 65.0667C158.966 62.6606 164.018 58.8345 167.897 53.9451C168.343 53.5192 168.782 53.0931 169.217 52.6452C169.893 51.9568 173.171 48.6684 172.361 47.2593C172.602 46.7677 173.071 46.3961 172.83 45.7625V45.7625Z" fill="#614335"/>
<path d="M149.48 30.5449C147.942 31.1566 146.752 34.4779 146.882 35.1769L148.094 34.5652L148.313 34.3248C148.529 33.0177 148.923 31.7458 149.48 30.5449Z" fill="#FF7F00"/>
<path d="M150.133 33.2096C150.05 33.1505 149.959 33.1062 149.862 33.0784L149.762 32.9911C149.163 32.5211 148.234 33.1331 147.688 33.4281C146.989 33.7963 146.332 34.2358 145.723 34.7391C145.447 35.1176 145.25 35.5487 145.145 36.0063C144.916 36.5525 144.686 37.0987 144.424 37.6342C143.892 38.7627 143.29 39.8574 142.623 40.9116C141.319 42.953 139.78 44.8341 138.037 46.5161C137.229 47.3027 138.463 48.5261 139.271 47.7398L139.85 47.1605C139.971 47.2409 140.113 47.2838 140.259 47.2838C140.404 47.2838 140.547 47.2409 140.668 47.1605C140.812 47.0623 140.947 46.9525 141.072 46.8327L141.258 46.6799C141.309 46.8133 141.393 46.9317 141.502 47.0249C141.61 47.1178 141.74 47.1824 141.88 47.2129C142.019 47.2431 142.164 47.2381 142.302 47.1987C142.439 47.1591 142.564 47.0859 142.666 46.9858L143.256 46.363C143.444 46.2929 143.597 46.1517 143.682 45.9699C143.682 45.9699 143.769 47.1605 143.791 47.1278C144.741 46.1226 145.865 43.3368 146.814 41.6653C146.809 41.5885 146.828 41.5117 146.87 41.4468C147.441 40.4544 147.696 39.3109 147.602 38.1693C147.599 37.3855 147.668 36.6027 147.81 35.8316L149.36 34.6298C149.731 34.3456 150.133 33.9197 150.059 33.5373C150.103 33.4339 150.131 33.3225 150.133 33.2096V33.2096Z" fill="#FF7F00"/>
<path d="M155.425 55.1483C149.912 56.7652 148.961 56.1535 146.352 56.0661C143.743 55.9785 140.97 52.3186 140.97 52.3186C140.97 52.3187 140.315 44.1361 135.434 50.5379C131.799 55.323 130.401 69.176 129.975 75.8838C131.899 77.2064 134.135 78.0044 136.461 78.1999C137.958 78.4509 139.473 78.5787 140.992 78.5823C141.925 78.5756 142.847 78.3746 143.699 77.9922L146.288 65.9748C150.447 66.2006 154.562 65.0193 157.97 62.6211L155.425 55.1483Z" fill="#FF7F00"/>
<path d="M144.431 45.256C144.431 45.256 147.98 52.0732 144.431 53.9959C140.883 55.9189 138.175 52.7395 137.881 51.9201C137.702 51.0165 137.747 50.0829 138.012 49.2006C138.276 48.3182 138.752 47.5139 139.397 46.8572C140.043 46.2007 140.839 45.7115 141.716 45.4323C142.593 45.1533 143.525 45.0929 144.431 45.256H144.431Z" fill="#614335"/>
<path d="M144.316 44.3672C143.42 43.7974 142.412 43.4281 141.36 43.2847C140.309 43.1413 139.239 43.2273 138.224 43.5367C136.436 43.8639 134.79 44.7291 133.507 46.0168C133.053 45.7104 132.525 45.5329 131.978 45.5032C131.316 45.4536 130.655 45.6149 130.091 45.9643C129.526 46.3137 129.086 46.833 128.834 47.4478C128.628 48.0265 128.624 48.6576 128.822 49.2387C129.02 49.82 129.41 50.3171 129.926 50.649C130.726 51.0685 131.66 51.155 132.524 50.8891V51.053C132.644 52.3424 131.433 52.9868 130.952 54.0793C130.72 54.577 130.655 55.1365 130.766 55.6745C130.887 56.2096 131.443 56.7669 131.433 57.3349C131.335 57.7397 131.14 58.1149 130.865 58.4273C130.615 58.7989 130.409 59.1985 130.253 59.6183C132.917 60.8511 135.923 61.1325 138.769 60.4158C141.816 59.882 144.608 58.3757 146.729 56.1223C146.604 55.8425 146.423 55.5927 146.194 55.3903C145.718 55.0703 145.209 54.803 144.676 54.5928C143.923 54.1558 144.676 52.834 144.676 52.1239C144.676 50.9002 143.737 50.3867 142.722 49.9389C141.99 49.6328 141.957 49.185 141.947 48.4422C141.881 47.8512 142.003 47.2548 142.296 46.7377C142.516 46.7695 142.74 46.7232 142.929 46.6068C143.309 46.3775 143.716 46.1975 144.141 46.0714C144.354 45.9945 144.529 45.8371 144.627 45.6327C144.725 45.4281 144.739 45.1932 144.665 44.9789C144.665 44.8552 144.633 44.7338 144.572 44.6264C144.51 44.5192 144.422 44.4299 144.316 44.3672V44.3672Z" fill="black"/>
<path d="M141.28 46.9346C142.417 46.6856 143.518 46.2927 144.556 45.7657C144.556 45.6564 144.894 41.3957 137.372 42.8816C129.849 44.3673 133.419 53.3584 133.419 53.3584" fill="black"/>
<path d="M213.126 56.6789L265.77 87.6837C266.311 88.0061 266.755 88.4684 267.054 89.0224C267.354 89.5761 267.501 90.2009 267.473 90.83L265.651 138.801C265.635 139.396 265.465 139.977 265.16 140.487C264.853 140.996 264.417 141.417 263.899 141.708C263.38 141.999 262.795 142.15 262.202 142.146C261.606 142.142 261.023 141.983 260.508 141.686L209.685 112.035C209.158 111.726 208.722 111.284 208.42 110.753C208.115 110.222 207.957 109.621 207.96 109.009V59.694C207.954 59.0862 208.107 58.4876 208.406 57.9588C208.706 57.43 209.141 56.99 209.665 56.6835C210.189 56.3771 210.788 56.2152 211.395 56.2144C212.003 56.2138 212.599 56.3738 213.126 56.6788V56.6789Z" stroke="#54595D" stroke-width="0.000417" stroke-miterlimit="10" stroke-linecap="round" stroke-dasharray="0 0"/>
<path d="M245.575 43.1087C243.468 42.1365 238.466 38.8371 232.157 41.8741C225.847 44.9112 219.863 50.5267 226.382 67.0672C228.486 67.8752 230.81 67.8985 232.931 67.1327C232.931 67.1327 231.589 52.6571 233.619 50.9746L254.823 62.7627C255.058 65.5183 254.481 68.2828 253.17 70.7163C251.856 73.15 249.862 75.1472 247.43 76.4627L253.272 81.8267C258.053 81.7501 268.556 66.5318 265.282 55.7161C262.007 44.9005 244.122 42.5516 244.122 42.5516" fill="#00A7E2"/>
<path d="M245.575 43.1087C243.468 42.1365 238.466 38.8371 232.157 41.8741C225.847 44.9112 219.863 50.5267 226.382 67.0672C228.486 67.8752 230.81 67.8985 232.931 67.1327C232.931 67.1327 231.589 52.6571 233.619 50.9746L254.823 62.7627C255.058 65.5183 254.481 68.2828 253.17 70.7163C251.856 73.15 249.862 75.1472 247.43 76.4627L253.272 81.8267C258.053 81.7501 268.556 66.5318 265.282 55.7161C262.007 44.9005 244.122 42.5516 244.122 42.5516" fill="#FF7F00"/>
<path d="M251.67 42.334C250.228 43.929 247.467 43.2081 245.645 42.7927C243.46 42.2902 240.895 40.9465 241.092 38.3135C241.092 37.9202 240.501 37.9202 240.468 38.3135C240.26 41.0558 242.761 42.6834 245.132 43.3061C247.237 43.8305 250.425 44.6282 252.108 42.771C252.369 42.4541 251.934 42.039 251.67 42.334V42.334Z" fill="#92BFB1"/>
<path d="M240.456 36.4918C240.456 36.4918 240.456 49.9186 245.378 50.7925C250.838 51.7539 253.829 45.6032 253.829 45.6032C253.829 45.6032 254.528 33.7386 249.146 32.7007C243.764 31.6629 240.62 34.7765 240.456 36.4918Z" fill="#EDB98A"/>
<path d="M249.555 44.4153C249.555 44.4153 250.855 39.2587 252.294 40.9632C253.736 42.6673 249.96 46.3709 249.96 46.3709" fill="#D08B5B"/>
<path d="M250.854 31.1938C250.854 31.1938 255.659 31.7071 257.056 35.5638C258.454 39.4203 254.871 47.002 252.284 48.1929L255.407 41.5068L255.254 36.9949L250.854 31.1938Z" fill="#202122"/>
<path d="M256.851 37.2545C256.46 34.5779 254.668 33.2777 252.364 31.9013L251.785 31.5952C252.248 31.233 252.622 30.7697 252.877 30.2406C252.908 30.1871 252.924 30.1267 252.924 30.0651C252.924 30.0033 252.908 29.9429 252.877 29.8896C252.847 29.8364 252.802 29.7923 252.747 29.7618C252.694 29.7313 252.633 29.7157 252.572 29.7163C252.267 29.7282 251.97 29.8036 251.699 29.937C251.427 30.0707 251.183 30.2595 250.989 30.4919C250.714 29.9395 250.345 29.4401 249.896 29.017C249.852 28.9754 249.799 28.9457 249.738 28.9307C249.68 28.9155 249.619 28.9157 249.561 28.9311C249.5 28.9463 249.447 28.9762 249.403 29.0178C249.358 29.0597 249.325 29.1121 249.306 29.17C249.203 29.4293 249.156 29.7085 249.17 29.988C249.186 30.2675 249.261 30.5404 249.394 30.7869C246.979 30.2817 244.462 30.6699 242.31 31.8794C241.511 32.328 240.832 32.9566 240.322 33.7147C239.665 33.6454 239.002 33.7627 238.411 34.0533C237.776 34.3491 237.255 34.8444 236.928 35.4638C236.601 36.083 236.484 36.7925 236.598 37.4838C236.82 38.1967 237.313 38.794 237.97 39.1475C238.628 39.5008 239.398 39.582 240.114 39.3738C240.86 39.2354 241.561 38.9082 242.143 38.4232C241.708 39.1552 241.489 40.095 242.909 40.4227C245.377 40.9906 246.544 39.5157 246.696 40.7505C246.83 41.7553 248.216 42.3127 249.209 42.3346C249.286 42.4874 249.472 42.8916 249.688 43.4271C250.185 43.2626 250.717 43.2324 251.227 43.3394C251.269 43.2954 251.316 43.2615 251.371 43.2402C251.427 43.2191 251.488 43.2113 251.546 43.2177C251.604 43.2241 251.66 43.2446 251.71 43.2771C251.76 43.3098 251.801 43.3536 251.829 43.4052C252.68 44.869 252.483 46.4641 252.156 48.1575C253.504 47.0187 254.618 45.627 255.431 44.0607C256.562 41.9799 257.056 39.6133 256.851 37.2545ZM249.863 30.0548L249.963 30.2079C249.957 30.244 249.957 30.2808 249.963 30.3172C249.963 30.4264 250.049 30.5465 250.093 30.6557C249.968 30.478 249.888 30.2714 249.863 30.0548Z" fill="#202122"/>
<path d="M277.138 101.321L308.463 119.598C308.751 119.768 308.993 120.01 309.159 120.302C309.325 120.593 309.414 120.923 309.411 121.259C309.414 121.597 309.323 121.93 309.153 122.223C308.984 122.517 308.74 122.76 308.446 122.928C308.152 123.097 307.82 123.185 307.481 123.183C307.143 123.182 306.81 123.091 306.519 122.919L275.206 104.751C274.915 104.583 274.673 104.341 274.504 104.049C274.335 103.758 274.246 103.427 274.246 103.09V102.981C274.246 102.642 274.335 102.31 274.504 102.017C274.673 101.723 274.917 101.48 275.211 101.311C275.505 101.143 275.838 101.055 276.176 101.057C276.515 101.058 276.847 101.149 277.138 101.321V101.321Z" fill="#92BFB1"/>
<path d="M277.139 111.069L308.464 129.347C308.752 129.516 308.994 129.759 309.16 130.05C309.326 130.342 309.412 130.671 309.412 131.007C309.412 131.346 309.324 131.679 309.154 131.972C308.985 132.265 308.741 132.508 308.447 132.677C308.153 132.845 307.821 132.933 307.482 132.932C307.144 132.93 306.811 132.839 306.52 132.668L275.207 114.554C274.916 114.386 274.674 114.144 274.505 113.853C274.336 113.561 274.247 113.23 274.247 112.894V112.784C274.236 112.441 274.319 112.101 274.483 111.8C274.649 111.5 274.893 111.248 275.187 111.073C275.484 110.898 275.82 110.806 276.163 110.805C276.507 110.804 276.843 110.895 277.139 111.069V111.069Z" fill="#92BFB1"/>
<path d="M277.138 121.142L308.463 139.419C308.751 139.589 308.993 139.832 309.159 140.123C309.325 140.414 309.414 140.744 309.411 141.08C309.414 141.418 309.323 141.751 309.153 142.045C308.984 142.338 308.74 142.581 308.446 142.749C308.152 142.918 307.82 143.006 307.481 143.004C307.143 143.003 306.81 142.912 306.519 142.741L275.206 124.572C274.915 124.404 274.673 124.162 274.504 123.87C274.335 123.579 274.246 123.248 274.246 122.912V122.802C274.246 122.464 274.335 122.131 274.504 121.838C274.673 121.544 274.917 121.301 275.211 121.133C275.505 120.964 275.838 120.876 276.176 120.878C276.515 120.879 276.847 120.971 277.138 121.142V121.142Z" fill="#92BFB1"/>
<path d="M277.138 130.89L308.463 149.168C308.751 149.337 308.993 149.58 309.159 149.871C309.325 150.162 309.414 150.492 309.411 150.828C309.414 151.167 309.323 151.5 309.153 151.793C308.984 152.086 308.74 152.329 308.446 152.498C308.152 152.666 307.82 152.754 307.481 152.753C307.143 152.751 306.81 152.66 306.519 152.489L275.206 134.331C274.915 134.163 274.673 133.921 274.504 133.629C274.335 133.338 274.246 133.008 274.246 132.671V132.562C274.244 132.222 274.332 131.888 274.499 131.593C274.668 131.298 274.912 131.054 275.206 130.884C275.5 130.714 275.835 130.625 276.174 130.626C276.512 130.627 276.847 130.718 277.138 130.89V130.89Z" fill="#92BFB1"/>
<path d="M198.637 67.0447V98.6831L174.169 84.6556V53.29L198.637 67.0447V67.0447Z" fill="#72777D"/>
<path d="M176.771 84.8096V92.5446L183.007 87.1149L176.771 84.8096V84.8096Z" fill="#72777D"/>
<path d="M308.504 108.779C309.477 108.779 310.262 107.923 310.262 106.867C310.262 105.812 309.477 104.956 308.504 104.956C307.534 104.955 306.746 105.812 306.746 106.867C306.746 107.923 307.534 108.779 308.504 108.779Z" fill="#CA054D"/>
<path d="M302.005 105.855C302.975 105.855 303.763 104.999 303.763 103.943C303.763 102.887 302.975 102.031 302.005 102.031C301.034 102.031 300.247 102.887 300.247 103.943C300.247 104.999 301.034 105.855 302.005 105.855Z" fill="#CA054D"/>
<path d="M296.806 102.93C297.776 102.93 298.564 102.074 298.564 101.018C298.564 99.9619 297.776 99.106 296.806 99.106C295.835 99.106 295.048 99.9619 295.048 101.018C295.048 102.074 295.835 102.93 296.806 102.93Z" fill="#CA054D"/>
<path d="M133.285 140.704C132.478 140.556 131.725 140.198 131.101 139.666C130.713 138.944 130.553 138.121 130.643 137.306V135.023C130.6 134.989 130.565 134.945 130.541 134.896C130.516 134.847 130.503 134.794 130.501 134.739C130.459 134.12 130.459 133.5 130.501 132.882L127.378 132.576C126.838 134.536 126.405 136.523 126.079 138.53C126.166 139.142 129.136 143.206 130.654 143.479C132.171 143.752 136.364 142.386 136.713 141.851C135.578 141.512 134.42 141.152 133.285 140.704V140.704Z" fill="#614335"/>
<path d="M155.079 129.57C153.305 129.583 151.533 129.747 149.786 130.061C149.786 130.061 149.184 126.576 149.273 126.401L144.828 126.707C144.828 126.707 144.271 133.175 144.271 134.027C144.271 135.589 146.214 136.092 146.641 136.026C146.946 135.921 147.246 135.797 147.534 135.655C147.373 134.849 147.29 134.029 147.285 133.208C147.285 132.836 147.382 132.563 147.742 132.432C148.596 132.321 149.467 132.399 150.288 132.661C151.083 132.814 151.871 133 152.667 133.142C153.901 132.611 155.035 131.872 156.019 130.957C156.302 130.094 156.662 129.886 155.079 129.57Z" fill="#614335"/>
<path d="M156.546 129.763L156.435 129.643C156.097 129.315 155.201 129.348 154.788 129.326C153.094 129.337 151.408 129.553 149.766 129.97C149.766 129.97 153.795 129.424 153.948 130.145C154.012 130.434 154.009 130.735 153.94 131.023C153.87 131.311 153.734 131.579 153.543 131.806C151.863 133.302 149.231 131.653 147.593 130.943L144.547 129.632L144.35 132.112C144.245 133.245 144.245 134.386 144.35 135.52C144.557 135.87 146.359 136.82 146.741 136.613C147.124 136.405 148.302 135.706 148.302 135.706L148.061 132.712C148.061 132.712 150.573 133.805 151.763 133.499C152.67 133.281 157.594 131.161 156.546 129.763Z" fill="#CA054D"/>
<path d="M129.524 138.471C129.524 138.471 131.161 143.584 131.707 143.934C132.253 144.283 138.586 142.262 137.647 141.061C137.046 140.296 133.279 140.307 132.919 140.208C132.919 140.208 134.917 140.864 134.917 141.181C134.174 141.841 133.257 142.273 132.275 142.426C132.144 142.186 129.414 137.707 129.414 137.707L126.849 136.8L124.774 141.487L126.565 142.251C126.565 142.251 127.111 143.683 127.297 143.683C127.911 142.847 128.462 141.967 128.945 141.05C129.063 141.699 129.272 142.328 129.568 142.918C129.818 143.104 131.904 144.819 132.843 143.508L131.085 141.53" fill="#CA054D"/>
<path d="M124.774 141.787L125.102 142.956L127.297 143.983V141.787L126.03 141.35" fill="#202122"/>
<path d="M141.722 128.572C143.65 129.022 145.656 129.018 147.584 128.561C149.508 128.104 151.305 127.207 152.824 125.939C152.891 119.384 153.501 113.408 153.307 106.831C152.988 96.092 151.427 85.5494 143.894 77.1699L130.181 75.0615C124.613 85.6587 123.478 134.133 123.478 134.133C123.478 134.133 130.465 138.59 135.782 136.405L137.846 95.9827C137.846 95.9827 141.481 100.287 142.136 102.691C142.617 104.504 141.634 120.455 141.722 128.572H141.722Z" fill="#202122"/>
<path d="M83.9939 114.281C97.3622 114.281 108.199 108.921 108.199 102.308C108.199 95.6947 97.3622 90.334 83.9939 90.334C70.6259 90.334 59.7888 95.6947 59.7888 102.308C59.7888 108.921 70.6259 114.281 83.9939 114.281Z" fill="#00A7E2"/>
<path d="M83.9939 114.281C97.3622 114.281 108.199 108.921 108.199 102.308C108.199 95.6947 97.3622 90.334 83.9939 90.334C70.6259 90.334 59.7888 95.6947 59.7888 102.308C59.7888 108.921 70.6259 114.281 83.9939 114.281Z" fill="#202122"/>
<path d="M339.665 217.71L306.746 237.519C306.746 237.519 312.805 248.161 327.753 254.442L363.936 233.975" fill="#C8CCD1"/>
<path d="M356.089 234.847C366.11 234.847 374.235 229.121 374.235 222.056C374.235 214.988 366.11 209.261 356.089 209.261C346.066 209.261 337.941 214.988 337.941 222.056C337.941 229.121 346.066 234.847 356.089 234.847Z" fill="#72777D"/>
<path d="M355.43 220.079C362.939 220.079 369.025 217.586 369.025 214.508C369.025 211.43 362.939 208.937 355.43 208.937C347.924 208.937 341.837 211.43 341.837 214.508C341.837 217.586 347.924 220.079 355.43 220.079Z" fill="#202122"/>
<path d="M355.3 204.999C355.3 202.487 355.214 199.974 355.017 197.472C354.967 196.824 354.909 196.176 354.843 195.527L354.701 194.249C354.646 193.878 354.504 192.905 354.504 192.949C354.418 192.439 354.33 191.93 354.244 191.42C352.757 182.895 349.447 174.792 344.536 167.669C342.692 172.07 341.774 176.805 341.841 181.576C341.841 182.953 341.949 184.329 342.068 185.706V186.285C342.068 186.34 342.068 186.198 342.124 186.514C342.232 187.192 342.365 187.869 342.495 188.536C343.041 191.097 343.771 193.616 344.677 196.074C345.484 198.332 346.466 200.524 347.614 202.629C348.848 204.999 350.193 207.316 351.632 209.566C352.724 211.324 353.817 212.91 354.909 214.405C355.148 211.283 355.3 208.135 355.3 204.999ZM348.16 176.759C348.21 176.434 348.188 176.102 348.096 175.786C348.446 176.143 348.784 176.507 349.111 176.879C348.803 176.79 348.482 176.749 348.16 176.759Z" fill="#CA054D"/>
<path d="M359.148 207.187C360.512 205.079 361.788 202.916 362.98 200.698C363.285 200.123 363.587 199.544 363.884 198.961L364.452 197.803L364.988 196.601C365.193 196.128 365.392 195.651 365.589 195.17C368.942 187.197 370.533 178.591 370.25 169.944C366.305 172.643 362.961 176.128 360.424 180.181C359.692 181.35 359.026 182.552 358.383 183.775L358.111 184.289C358.111 184.289 358.111 184.223 358.033 184.518C357.762 185.152 357.498 185.785 357.257 186.419C356.328 188.864 355.571 191.372 354.997 193.925C354.448 196.263 354.085 198.641 353.907 201.037C353.655 203.702 353.547 206.379 353.536 209.045C353.536 211.132 353.536 213.043 353.666 214.878C355.621 212.399 357.465 209.832 359.148 207.187V207.187ZM368.384 179.569C368.601 179.323 368.761 179.032 368.853 178.717C368.956 179.205 369.041 179.697 369.116 180.192C368.906 179.948 368.659 179.738 368.384 179.569Z" fill="#CA054D"/>
<path d="M360.215 213.41C361.626 212.681 363.012 211.927 364.374 211.148L365.466 210.504L366.143 210.066L366.819 209.598L367.607 209.018C371.991 205.8 375.626 201.67 378.263 196.914C375.271 197.106 372.348 197.913 369.681 199.284C368.905 199.678 368.164 200.115 367.421 200.562L367.105 200.748L366.994 200.847C366.645 201.098 366.295 201.36 365.957 201.622C364.665 202.627 363.448 203.722 362.311 204.9C361.26 205.984 360.298 207.149 359.43 208.385C358.434 209.739 357.508 211.148 356.646 212.589C355.967 213.682 355.379 214.774 354.833 215.781C356.635 215.049 358.434 214.295 360.215 213.41V213.41ZM374.115 201.491C374.312 201.43 374.495 201.325 374.65 201.185C374.547 201.484 374.436 201.779 374.32 202.07C374.284 201.867 374.212 201.672 374.115 201.491V201.491Z" fill="#92BFB1"/>
<path d="M355.3 204.999C355.3 202.487 355.214 199.974 355.017 197.472C354.967 196.824 354.909 196.176 354.843 195.527L354.701 194.249C354.646 193.878 354.504 192.905 354.504 192.949C354.418 192.439 354.33 191.93 354.244 191.42C352.757 182.895 349.447 174.792 344.536 167.669C342.692 172.07 341.774 176.805 341.841 181.576C341.841 182.953 341.949 184.329 342.068 185.706V186.285C342.068 186.34 342.068 186.198 342.124 186.514C342.232 187.192 342.365 187.869 342.495 188.536C343.041 191.097 343.771 193.616 344.677 196.074C345.484 198.332 346.466 200.524 347.614 202.629C348.848 204.999 350.193 207.316 351.632 209.566C352.724 211.324 353.817 212.91 354.909 214.405C355.148 211.283 355.3 208.135 355.3 204.999ZM348.16 176.759C348.21 176.434 348.188 176.102 348.096 175.786C348.446 176.143 348.784 176.507 349.111 176.879C348.803 176.79 348.482 176.749 348.16 176.759Z" fill="#92BFB1"/>
<path d="M359.148 207.187C360.512 205.079 361.788 202.916 362.98 200.698C363.285 200.123 363.587 199.544 363.884 198.961L364.452 197.803L364.988 196.601C365.193 196.128 365.392 195.651 365.589 195.17C368.942 187.197 370.533 178.591 370.25 169.944C366.305 172.643 362.961 176.128 360.424 180.181C359.692 181.35 359.026 182.552 358.383 183.775L358.111 184.289C358.111 184.289 358.111 184.223 358.033 184.518C357.762 185.152 357.498 185.785 357.257 186.419C356.328 188.864 355.571 191.372 354.997 193.925C354.448 196.263 354.085 198.641 353.907 201.037C353.655 203.702 353.547 206.379 353.536 209.045C353.536 211.132 353.536 213.043 353.666 214.878C355.621 212.399 357.465 209.832 359.148 207.187V207.187ZM368.384 179.569C368.601 179.323 368.761 179.032 368.853 178.717C368.956 179.205 369.041 179.697 369.116 180.192C368.906 179.948 368.659 179.738 368.384 179.569Z" fill="#92BFB1"/>
<path d="M360.215 213.41C361.626 212.681 363.012 211.927 364.374 211.148L365.466 210.504L366.143 210.066L366.819 209.598L367.607 209.018C371.991 205.8 375.626 201.67 378.263 196.914C375.271 197.106 372.348 197.913 369.681 199.284C368.905 199.678 368.164 200.115 367.421 200.562L367.105 200.748L366.994 200.847C366.645 201.098 366.295 201.36 365.957 201.622C364.665 202.627 363.448 203.722 362.311 204.9C361.26 205.984 360.298 207.149 359.43 208.385C358.434 209.739 357.508 211.148 356.646 212.589C355.967 213.682 355.379 214.774 354.833 215.781C356.635 215.049 358.434 214.295 360.215 213.41V213.41ZM374.115 201.491C374.312 201.43 374.495 201.325 374.65 201.185C374.547 201.484 374.436 201.779 374.32 202.07C374.284 201.867 374.212 201.672 374.115 201.491V201.491Z" fill="#92BFB1"/>
</svg>
