<?xml version="1.0" encoding="UTF-8" standalone="no"?>
<!DOCTYPE svg PUBLIC "-//W3C//DTD SVG 1.1//EN" "http://www.w3.org/Graphics/SVG/1.1/DTD/svg11.dtd">
<svg width="100%" height="100%" viewBox="0 0 123 51" version="1.1" xmlns="http://www.w3.org/2000/svg" xmlns:xlink="http://www.w3.org/1999/xlink" xml:space="preserve" xmlns:serif="http://www.serif.com/" style="fill-rule:evenodd;clip-rule:evenodd;stroke-linejoin:round;stroke-miterlimit:2;">
    <path d="M54.84,0L118.55,0C118.566,-0 118.581,-0 118.597,-0C120.95,-0 122.887,1.936 122.887,4.29C122.887,4.417 122.881,4.544 122.87,4.67L119.78,45.45C119.634,47.478 118.265,49.225 116.33,49.85C115.825,50.025 115.295,50.116 114.76,50.12L51.07,50.12C51.054,50.12 51.039,50.12 51.023,50.12C48.67,50.12 46.733,48.184 46.733,45.83C46.733,45.703 46.739,45.576 46.75,45.45L49.84,4.67C50.073,2.08 52.24,0.055 54.84,0ZM39.2,6L39.2,11.24L2.62,11.24C1.183,11.24 0,10.057 0,8.62C-0,7.183 1.183,6 2.62,6L39.2,6ZM36.2,38.88L36.2,44.11L21.91,44.11C21.856,44.113 21.802,44.115 21.748,44.115C20.311,44.115 19.128,42.932 19.128,41.495C19.128,40.058 20.311,38.875 21.748,38.875C21.802,38.875 21.856,38.877 21.91,38.88L36.2,38.88ZM37.7,22.44L37.7,27.67L11.47,27.67C11.416,27.673 11.362,27.675 11.308,27.675C9.871,27.675 8.688,26.492 8.688,25.055C8.688,23.618 9.871,22.435 11.308,22.435C11.362,22.435 11.416,22.437 11.47,22.44L37.7,22.44ZM51.22,42.44L73.65,22.88L53.89,7.21L51.23,42.46L51.22,42.44ZM76.77,25.55L53.57,45.87L112.76,45.87L93.6,25.57L86.27,31.44C85.877,31.752 85.392,31.924 84.89,31.93C84.408,31.938 83.939,31.771 83.57,31.46L76.77,25.55ZM97.06,22.83L115.75,42.6L118.44,7L97.06,22.83ZM57.2,4.25L85.2,27.07L115.39,4.25L57.2,4.25Z" style="fill:rgb(255,127,0);fill-rule:nonzero;"/>
</svg>
