<svg width="247" height="247" viewBox="0 0 247 247" fill="none" xmlns="http://www.w3.org/2000/svg">
<g clip-path="url(#clip0_914_38)">
<path d="M122.889 1.22278C98.8253 1.22278 75.3025 8.35835 55.2946 21.7272C35.2868 35.096 19.6926 54.0976 10.484 76.3291C1.27537 98.5606 -1.13402 123.024 3.56049 146.624C8.25499 170.225 19.8425 191.904 36.8578 208.919C53.8731 225.935 75.5519 237.522 99.1527 242.217C122.754 246.911 147.216 244.502 169.448 235.293C191.68 226.085 210.681 210.49 224.05 190.483C237.419 170.475 244.554 146.952 244.554 122.889C244.554 90.6208 231.736 59.6746 208.919 36.8579C186.102 14.0411 155.156 1.22278 122.889 1.22278V1.22278ZM207.674 138.097H38.1027C37.2539 138.097 36.4134 137.93 35.6292 137.605C34.845 137.28 34.1325 136.804 33.5323 136.204C32.9321 135.604 32.456 134.891 32.1312 134.107C31.8063 133.323 31.6392 132.482 31.6392 131.633V114.144C31.6392 112.43 32.3201 110.786 33.5323 109.573C34.7444 108.361 36.3884 107.68 38.1027 107.68H207.674C209.389 107.68 211.033 108.361 212.245 109.573C213.457 110.786 214.138 112.43 214.138 114.144V131.557C214.148 132.412 213.988 133.261 213.668 134.054C213.348 134.847 212.873 135.569 212.272 136.177C211.671 136.785 210.955 137.268 210.166 137.598C209.376 137.927 208.53 138.097 207.674 138.097Z" fill="#FF7F00"/>
</g>
<defs>
<clipPath id="clip0_914_38">
<rect width="247" height="247" fill="white"/>
</clipPath>
</defs>
</svg>
